<svg xmlns="http://www.w3.org/2000/svg" viewBox="0 0 60 60">
  <defs>
    <linearGradient id="logoGoldGrad" x1="0%" y1="0%" x2="100%" y2="100%">
      <stop offset="0%" style="stop-color:#D4AF37;stop-opacity:1" />
      <stop offset="50%" style="stop-color:#F4E4A6;stop-opacity:1" />
      <stop offset="100%" style="stop-color:#D4AF37;stop-opacity:1" />
    </linearGradient>
    <linearGradient id="logoWoodGrad" x1="0%" y1="0%" x2="0%" y2="100%">
      <stop offset="0%" style="stop-color:#8B4513;stop-opacity:1" />
      <stop offset="100%" style="stop-color:#654321;stop-opacity:1" />
    </linearGradient>
  </defs>
  
  <!-- Circle background -->
  <circle cx="30" cy="30" r="28" fill="rgba(139, 21, 56, 0.1)" stroke="url(#logoGoldGrad)" stroke-width="1"/>
  
  <!-- Lyre/Harp -->
  <g transform="translate(30, 30)">
    <!-- Base -->
    <ellipse cx="0" cy="14" rx="12" ry="3.5" fill="url(#logoWoodGrad)" opacity="0.9"/>
    
    <!-- Left arm -->
    <path d="M -9 14 Q -12 3 -8 -14" stroke="url(#logoWoodGrad)" stroke-width="2.5" fill="none" stroke-linecap="round"/>
    
    <!-- Right arm -->
    <path d="M 9 14 Q 12 3 8 -14" stroke="url(#logoWoodGrad)" stroke-width="2.5" fill="none" stroke-linecap="round"/>
    
    <!-- Top bar -->
    <line x1="-8" y1="-14" x2="8" y2="-14" stroke="url(#logoWoodGrad)" stroke-width="2.5" stroke-linecap="round"/>
    
    <!-- Strings -->
    <line x1="-6" y1="-13" x2="-5" y2="13" stroke="url(#logoGoldGrad)" stroke-width="0.8" opacity="0.9"/>
    <line x1="-2" y1="-13" x2="-1.5" y2="13" stroke="url(#logoGoldGrad)" stroke-width="0.8" opacity="0.9"/>
    <line x1="2" y1="-13" x2="2" y2="13" stroke="url(#logoGoldGrad)" stroke-width="0.8" opacity="0.9"/>
    <line x1="6" y1="-13" x2="5.5" y2="13" stroke="url(#logoGoldGrad)" stroke-width="0.8" opacity="0.9"/>
    
    <!-- Decorative circles -->
    <circle cx="-8" cy="-14" r="1.8" fill="url(#logoGoldGrad)"/>
    <circle cx="8" cy="-14" r="1.8" fill="url(#logoGoldGrad)"/>
  </g>
  
  <!-- Musical note accent -->
  <g opacity="0.7" fill="url(#logoGoldGrad)">
    <circle cx="48" cy="15" r="2.5"/>
    <rect x="50" y="15" width="1" height="8"/>
  </g>
</svg>
